<svg width="16" height="20" viewBox="0 0 16 20" fill="none" xmlns="http://www.w3.org/2000/svg">
<path d="M7.25 12.925V15.4C7.25 15.6167 7.32083 15.7958 7.4625 15.9375C7.60417 16.0792 7.78333 16.15 8 16.15C8.21667 16.15 8.39583 16.0792 8.5375 15.9375C8.67917 15.7958 8.75 15.6167 8.75 15.4V12.925H11.25C11.4667 12.925 11.6458 12.8542 11.7875 12.7125C11.9292 12.5708 12 12.3917 12 12.175C12 11.9583 11.9292 11.7792 11.7875 11.6375C11.6458 11.4958 11.4667 11.425 11.25 11.425H8.75V8.925C8.75 8.70833 8.67917 8.52917 8.5375 8.3875C8.39583 8.24583 8.21667 8.175 8 8.175C7.78333 8.175 7.60417 8.24583 7.4625 8.3875C7.32083 8.52917 7.25 8.70833 7.25 8.925V11.425H4.75C4.53333 11.425 4.35417 11.4958 4.2125 11.6375C4.07083 11.7792 4 11.9583 4 12.175C4 12.3917 4.07083 12.5708 4.2125 12.7125C4.35417 12.8542 4.53333 12.925 4.75 12.925H7.25ZM1.5 20C1.1 20 0.75 19.85 0.45 19.55C0.15 19.25 0 18.9 0 18.5V1.5C0 1.1 0.15 0.75 0.45 0.45C0.75 0.15 1.1 0 1.5 0H9.9C10.1 0 10.2958 0.0416667 10.4875 0.125C10.6792 0.208333 10.8417 0.316667 10.975 0.45L15.55 5.025C15.6833 5.15833 15.7917 5.32083 15.875 5.5125C15.9583 5.70417 16 5.9 16 6.1V18.5C16 18.9 15.85 19.25 15.55 19.55C15.25 19.85 14.9 20 14.5 20H1.5ZM9.775 5.4V1.5H1.5V18.5H14.5V6.15H10.525C10.3083 6.15 10.1292 6.07917 9.9875 5.9375C9.84583 5.79583 9.775 5.61667 9.775 5.4Z" fill="#19275F"/>
</svg>
