<svg width="16" height="16" viewBox="0 0 16 16" fill="none" xmlns="http://www.w3.org/2000/svg">
<path d="M8 16C7.75238 16 7.54762 15.919 7.38571 15.7571C7.22381 15.5952 7.14286 15.3905 7.14286 15.1429V8.85714H0.857143C0.609524 8.85714 0.404762 8.77619 0.242857 8.61429C0.0809525 8.45238 0 8.24762 0 8C0 7.75238 0.0809525 7.54762 0.242857 7.38571C0.404762 7.22381 0.609524 7.14286 0.857143 7.14286H7.14286V0.857143C7.14286 0.609524 7.22381 0.404762 7.38571 0.242857C7.54762 0.0809525 7.75238 0 8 0C8.24762 0 8.45238 0.0809525 8.61429 0.242857C8.77619 0.404762 8.85714 0.609524 8.85714 0.857143V7.14286H15.1429C15.3905 7.14286 15.5952 7.22381 15.7571 7.38571C15.919 7.54762 16 7.75238 16 8C16 8.24762 15.919 8.45238 15.7571 8.61429C15.5952 8.77619 15.3905 8.85714 15.1429 8.85714H8.85714V15.1429C8.85714 15.3905 8.77619 15.5952 8.61429 15.7571C8.45238 15.919 8.24762 16 8 16Z" fill="#19275F"/>
</svg>
