<svg width="20" height="20" viewBox="0 0 20 20" fill="none" xmlns="http://www.w3.org/2000/svg">
<path d="M19.082 0.917969C18.6914 0.527344 18.1054 0.527344 17.7539 0.917969L14.5507 4.08203L12.7148 2.24609C12.4804 2.01172 12.1679 1.89453 11.8554 1.89453C11.6992 1.89453 11.5039 1.89453 11.3476 1.97266C10.8789 2.16797 10.6054 2.63672 10.6054 3.14453V8.41797C10.6054 8.92578 10.9961 9.31641 11.5429 9.31641H16.8554C17.3633 9.31641 17.7929 9.00391 17.9883 8.53516C18.1836 8.06641 18.0664 7.51953 17.7148 7.16797L15.8789 5.33203L19.082 2.16797C19.4726 1.85547 19.4726 1.26953 19.082 0.917969ZM8.41797 10.6055H3.10547C2.59765 10.6055 2.12891 10.918 1.93359 11.3867C1.77734 11.8555 1.89453 12.4024 2.24609 12.7539L4.08203 14.5899L0.91797 17.793C0.527344 18.1446 0.527344 18.7305 0.91797 19.0821C1.26953 19.4727 1.85547 19.4727 2.20703 19.0821L5.41015 15.918L7.24609 17.7539C7.48047 17.9883 7.79297 18.1055 8.14453 18.1055C8.30078 18.1055 8.45703 18.1055 8.61328 18.0274C9.08203 17.8321 9.39453 17.3633 9.39453 16.8555V11.543C9.35547 11.0352 8.96484 10.6055 8.41797 10.6055Z" fill="black"/>
</svg>
