<svg width="10" height="12" viewBox="0 0 10 12" fill="none" xmlns="http://www.w3.org/2000/svg">
<path d="M9.76562 9.71875C10.0468 10.0312 10.0468 10.5 9.76562 10.7812C9.45312 11.0938 8.98438 11.0938 8.70312 10.7812L5.01562 7.0625L1.29688 10.7812C0.984375 11.0938 0.515625 11.0938 0.234375 10.7812C-0.078125 10.5 -0.078125 10.0312 0.234375 9.71875L3.95312 6L0.234375 2.28125C-0.078125 1.96875 -0.078125 1.5 0.234375 1.21875C0.515625 0.90625 0.984375 0.90625 1.26562 1.21875L5.01562 4.96875L8.73438 1.25C9.01562 0.9375 9.48442 0.9375 9.76562 1.25C10.0781 1.53125 10.0781 2 9.76562 2.3125L6.04688 6L9.76562 9.71875Z" fill="white"/>
</svg>
