<svg width="20" height="22" viewBox="0 0 20 22" fill="none" xmlns="http://www.w3.org/2000/svg">
<path d="M7.28571 17.1875C7.28571 17.5742 6.94643 17.875 6.60714 17.875C6.22545 17.875 5.92857 17.5742 5.92857 17.1875V8.25C5.92857 7.90625 6.22545 7.5625 6.60714 7.5625C6.94643 7.5625 7.28571 7.90625 7.28571 8.25V17.1875ZM10.6786 17.1875C10.6786 17.5742 10.3393 17.875 10 17.875C9.6183 17.875 9.32143 17.5742 9.32143 17.1875V8.25C9.32143 7.90625 9.6183 7.5625 10 7.5625C10.3393 7.5625 10.6786 7.90625 10.6786 8.25V17.1875ZM14.0714 17.1875C14.0714 17.5742 13.7321 17.875 13.3929 17.875C13.0112 17.875 12.7143 17.5742 12.7143 17.1875V8.25C12.7143 7.90625 13.0112 7.5625 13.3929 7.5625C13.7321 7.5625 14.0714 7.90625 14.0714 8.25V17.1875ZM13.9442 1.07422L15.5134 3.4375H18.4822C19.0334 3.4375 19.5 3.91016 19.5 4.46875C19.5 5.07031 19.0334 5.5 18.4822 5.5H18.1429V18.5625C18.1429 20.4961 16.616 22 14.75 22H5.25C3.34152 22 1.85714 20.4961 1.85714 18.5625V5.5H1.51786C0.924108 5.5 0.5 5.07031 0.5 4.46875C0.5 3.91016 0.924108 3.4375 1.51786 3.4375H4.44419L6.0134 1.07422C6.43749 0.42969 7.20089 0 8.0067 0H11.9509C12.7567 0 13.5201 0.42969 13.9442 1.07422ZM6.90402 3.4375H13.0536L12.2477 2.23438C12.2054 2.14844 12.0782 2.0625 11.9509 2.0625H8.0067C7.87946 2.0625 7.75224 2.14844 7.70982 2.23438L6.90402 3.4375ZM3.89286 18.5625C3.89286 19.3359 4.4866 19.9375 5.25 19.9375H14.75C15.471 19.9375 16.1071 19.3359 16.1071 18.5625V5.5H3.89286V18.5625Z" fill="black"/>
</svg>
