<svg width="18" height="20" viewBox="0 0 18 20" fill="none" xmlns="http://www.w3.org/2000/svg">
<path d="M2.80556 20C2.36111 20 1.97222 19.8333 1.63889 19.5C1.30556 19.1667 1.13889 18.7778 1.13889 18.3333V2.5H0.833333C0.592593 2.5 0.393519 2.4213 0.236111 2.26389C0.0787038 2.10648 0 1.90741 0 1.66667C0 1.42593 0.0787038 1.22685 0.236111 1.06944C0.393519 0.912037 0.592593 0.833333 0.833333 0.833333H5.22222C5.22222 0.592593 5.30093 0.393519 5.45833 0.236111C5.61574 0.0787038 5.81482 0 6.05556 0H11.7222C11.963 0 12.162 0.0787038 12.3194 0.236111C12.4769 0.393519 12.5556 0.592593 12.5556 0.833333H16.9444C17.1852 0.833333 17.3843 0.912037 17.5417 1.06944C17.6991 1.22685 17.7778 1.42593 17.7778 1.66667C17.7778 1.90741 17.6991 2.10648 17.5417 2.26389C17.3843 2.4213 17.1852 2.5 16.9444 2.5H16.6389V18.3333C16.6389 18.7778 16.4722 19.1667 16.1389 19.5C15.8056 19.8333 15.4167 20 14.9722 20H2.80556ZM2.80556 2.5V18.3333H14.9722V2.5H2.80556ZM5.75 15.1111C5.75 15.3519 5.8287 15.5509 5.98611 15.7083C6.14352 15.8657 6.34259 15.9444 6.58333 15.9444C6.82407 15.9444 7.02315 15.8657 7.18056 15.7083C7.33796 15.5509 7.41667 15.3519 7.41667 15.1111V5.69444C7.41667 5.4537 7.33796 5.25463 7.18056 5.09722C7.02315 4.93982 6.82407 4.86111 6.58333 4.86111C6.34259 4.86111 6.14352 4.93982 5.98611 5.09722C5.8287 5.25463 5.75 5.4537 5.75 5.69444V15.1111ZM10.3611 15.1111C10.3611 15.3519 10.4398 15.5509 10.5972 15.7083C10.7546 15.8657 10.9537 15.9444 11.1944 15.9444C11.4352 15.9444 11.6343 15.8657 11.7917 15.7083C11.9491 15.5509 12.0278 15.3519 12.0278 15.1111V5.69444C12.0278 5.4537 11.9491 5.25463 11.7917 5.09722C11.6343 4.93982 11.4352 4.86111 11.1944 4.86111C10.9537 4.86111 10.7546 4.93982 10.5972 5.09722C10.4398 5.25463 10.3611 5.4537 10.3611 5.69444V15.1111Z" fill="#19275F"/>
</svg>
