<svg width="21" height="20" viewBox="0 0 21 20" fill="none" xmlns="http://www.w3.org/2000/svg">
<path d="M1.63819 18.3618H2.83953L14.9349 6.26648L13.7335 5.06514L1.63819 17.1605V18.3618ZM18.4024 5.09244L14.9076 1.59763L16.0543 0.450893C16.3637 0.141457 16.7505 -0.00871103 17.2147 0.000390046C17.6788 0.00949112 18.0656 0.16876 18.3751 0.478196L19.5491 1.65223C19.8585 1.96167 20.0133 2.34392 20.0133 2.79897C20.0133 3.25402 19.8585 3.63627 19.5491 3.94571L18.4024 5.09244ZM0.819097 20C0.582469 20 0.386796 19.9226 0.232077 19.7679C0.0773592 19.6132 0 19.4175 0 19.1809V16.8328C0 16.7236 0.0182021 16.6235 0.0546064 16.5325C0.0910107 16.4415 0.154718 16.3505 0.245729 16.2595L13.7608 2.74436L17.2556 6.23918L3.74054 19.7543C3.64953 19.8453 3.55852 19.909 3.46751 19.9454C3.3765 19.9818 3.27639 20 3.16717 20H0.819097ZM14.3342 5.66581L13.7335 5.06514L14.9349 6.26648L14.3342 5.66581Z" fill="#19275F"/>
</svg>
