<svg width="20" height="20" viewBox="0 0 20 20" fill="none" xmlns="http://www.w3.org/2000/svg">
<path d="M14.6484 0.898436C15.7422 -0.195312 17.5 -0.195312 18.5937 0.898436L19.1015 1.40626C20.1953 2.5 20.1953 4.25782 19.1015 5.35157L11.3672 13.086C11.0547 13.3985 10.625 13.6719 10.1562 13.7891L6.25 14.9219C5.9375 15 5.58593 14.9219 5.35156 14.6485C5.07812 14.4141 5 14.0625 5.07812 13.75L6.21094 9.84378C6.32812 9.375 6.60156 8.94532 6.91406 8.63282L14.6484 0.898436ZM17.2656 2.22657C16.914 1.875 16.3281 1.875 15.9765 2.22657L14.8047 3.35938L16.6406 5.19532L17.7734 4.02344C18.125 3.67188 18.125 3.08594 17.7734 2.73438L17.2656 2.22657ZM8.00781 10.3516L7.34375 12.6563L9.64843 11.9922C9.80468 11.9531 9.92188 11.875 10.0391 11.7578L15.3125 6.48438L13.5156 4.6875L8.24218 9.96098C8.125 10.0781 8.04688 10.1953 8.00781 10.3516ZM7.89062 2.42188C8.39843 2.42188 8.82812 2.85157 8.82812 3.35938C8.82812 3.90626 8.39843 4.29688 7.89062 4.29688H3.51562C2.61719 4.29688 1.95312 5 1.95312 5.85938V16.4844C1.95312 17.3828 2.61719 18.0469 3.51562 18.0469H14.1406C15 18.0469 15.7031 17.3828 15.7031 16.4844V12.1094C15.7031 11.6016 16.0937 11.1719 16.6406 11.1719C17.1484 11.1719 17.5781 11.6016 17.5781 12.1094V16.4844C17.5781 18.3985 16.0156 19.9219 14.1406 19.9219H3.51562C1.60157 19.9219 0.078125 18.3985 0.078125 16.4844V5.85938C0.078125 3.98438 1.60157 2.42188 3.51562 2.42188H7.89062Z" fill="black"/>
</svg>
