<svg width="20" height="20" viewBox="0 0 20 20" fill="none" xmlns="http://www.w3.org/2000/svg">
<path d="M19.6973 18.3984L14.4629 13.1641C15.5957 11.7969 16.2207 10.0391 16.2207 8.125C16.2207 3.67188 12.5489 0 8.09571 0C3.60352 0 0.00976562 3.67188 0.00976562 8.125C0.00976562 12.6172 3.64258 16.25 8.09571 16.25C9.97071 16.25 11.7286 15.625 13.1348 14.4922L18.3692 19.7266C18.5645 19.9219 18.7989 20 19.0723 20C19.3067 20 19.541 19.9219 19.6973 19.7266C20.0879 19.375 20.0879 18.7891 19.6973 18.3984ZM1.88477 8.125C1.88477 4.6875 4.65821 1.875 8.13477 1.875C11.5723 1.875 14.3848 4.6875 14.3848 8.125C14.3848 11.6016 11.5723 14.375 8.13477 14.375C4.65821 14.375 1.88477 11.6016 1.88477 8.125Z" fill="#2D2D2D"/>
</svg>
