<svg width="16" height="20" viewBox="0 0 16 20" fill="none" xmlns="http://www.w3.org/2000/svg">
<path d="M1.42857 20C1.03175 20 0.694444 19.8611 0.416667 19.5833C0.138889 19.3056 0 18.9683 0 18.5714V8.2381C0 7.84127 0.138889 7.50397 0.416667 7.22619C0.694444 6.94841 1.03175 6.80952 1.42857 6.80952H3.09524V4.52381C3.09524 3.26984 3.53571 2.20238 4.41667 1.32143C5.29762 0.440476 6.36508 0 7.61905 0C8.87302 0 9.94048 0.440476 10.8214 1.32143C11.7024 2.20238 12.1429 3.26984 12.1429 4.52381V6.80952H13.8095C14.2063 6.80952 14.5437 6.94841 14.8214 7.22619C15.0992 7.50397 15.2381 7.84127 15.2381 8.2381V18.5714C15.2381 18.9683 15.0992 19.3056 14.8214 19.5833C14.5437 19.8611 14.2063 20 13.8095 20H1.42857ZM1.42857 18.5714H13.8095V8.2381H1.42857V18.5714ZM7.61905 15.2381C8.12698 15.2381 8.55952 15.0635 8.91667 14.7143C9.27381 14.3651 9.45238 13.9444 9.45238 13.4524C9.45238 12.9762 9.27381 12.5437 8.91667 12.1548C8.55952 11.7659 8.12698 11.5714 7.61905 11.5714C7.11111 11.5714 6.67857 11.7659 6.32143 12.1548C5.96429 12.5437 5.78571 12.9762 5.78571 13.4524C5.78571 13.9444 5.96429 14.3651 6.32143 14.7143C6.67857 15.0635 7.11111 15.2381 7.61905 15.2381ZM4.52381 6.80952H10.7143V4.52381C10.7143 3.66667 10.4127 2.93651 9.80952 2.33333C9.20635 1.73016 8.47619 1.42857 7.61905 1.42857C6.7619 1.42857 6.03175 1.73016 5.42857 2.33333C4.8254 2.93651 4.52381 3.66667 4.52381 4.52381V6.80952Z" fill="#E90505"/>
</svg>
