<svg width="406" height="306" viewBox="0 0 406 306" fill="none" xmlns="http://www.w3.org/2000/svg">
<path d="M393.82 172.518L202.34 61.3759C199.549 59.7519 195.377 60.8684 192.627 62.5736L101.277 115.232C118.887 107.914 144.577 100.372 155.823 112.461C173.758 131.746 140.029 145.073 177.188 154.654C192.677 158.643 206.471 149.062 221.148 145.854C236.952 142.414 261.251 143.226 271.837 157.953C281.124 170.894 264.001 202.085 280.536 207.881C303.708 216.001 327.672 198.746 346.145 214.509L312.458 235.672L394.835 188.677C400.681 185.307 399.636 175.888 393.82 172.518Z" fill="#FFC745"/>
<path d="M49.5116 145.053C49.5116 145.053 104.21 114.43 122.155 133.715C140.1 153 106.362 166.327 143.521 175.909C159.01 179.897 172.804 170.316 187.481 167.108C203.284 163.668 227.583 164.48 238.17 179.207C247.457 192.149 230.334 223.339 246.868 229.135C270.02 237.255 293.964 220.081 312.427 235.722L346.115 214.519C327.642 198.807 303.678 216.011 280.505 207.891C263.971 202.096 281.094 170.905 271.807 157.963C261.23 143.226 236.921 142.414 221.118 145.865C206.441 149.062 192.698 158.654 177.158 154.665C139.999 145.083 173.727 131.766 155.792 112.471C144.546 100.382 118.856 107.924 101.246 115.242L49.4812 145.063L49.5116 145.053Z" fill="#68E1FD"/>
<path d="M312.427 235.682C293.954 219.99 269.99 237.245 246.858 229.125C230.324 223.329 247.447 192.138 238.16 179.197C227.583 164.459 203.274 163.647 187.47 167.098C172.794 170.296 159.05 179.887 143.511 175.898C106.352 166.276 140.07 153 122.155 133.715C104.24 114.43 49.5218 145.103 49.5218 145.103L43.645 148.392L42.63 149.041L13.0833 166.053L9.55111 168.083C3.88741 171.595 8.87106 176.944 14.6769 180.202L197.093 287.995C200.77 290.059 204.922 291.128 209.138 291.098C213.355 291.067 217.491 289.939 221.138 287.822L226.325 284.859L239.52 277.307L311.361 236.291L312.437 235.682H312.427Z" fill="#68E1FD"/>
<g style="mix-blend-mode:multiply" opacity="0.56">
<path d="M312.427 235.682C293.954 219.99 269.99 237.245 246.858 229.125C230.324 223.329 247.447 192.138 238.16 179.197C227.583 164.459 203.274 163.647 187.47 167.098C172.794 170.296 159.05 179.887 143.511 175.898C106.352 166.276 140.07 153 122.155 133.715C104.24 114.43 49.5218 145.103 49.5218 145.103L43.645 148.392L42.63 149.041L13.0833 166.053L9.55111 168.083C3.88741 171.595 8.87106 176.944 14.6769 180.202L197.093 287.995C200.77 290.059 204.922 291.128 209.138 291.098C213.355 291.067 217.491 289.939 221.138 287.822L226.325 284.859L239.52 277.307L311.361 236.291L312.437 235.682H312.427Z" fill="#01B1C8"/>
</g>
<g style="mix-blend-mode:multiply" opacity="0.56">
<path d="M214.744 262.569L201.102 254.449C189.693 250.511 176.224 250.196 165.354 246.015C156.401 242.574 150.027 236.352 145.226 228.171C142.587 223.664 139.989 219.127 135.827 215.839C135.076 215.25 134.305 214.722 133.523 214.215L131.585 213.058C128.102 211.184 124.369 209.817 120.501 208.998C110.848 206.866 101.033 206.206 92.2939 201.131C83.5548 196.056 76.2671 188.525 68.3298 182.12C59.7375 175.208 49.7462 170.246 39.047 167.575C32.3029 165.993 25.4546 164.895 18.5542 164.287L13.0833 166.063L9.55111 168.093C3.88741 171.605 8.87106 176.954 14.6769 180.212L197.093 287.995C200.77 290.059 204.922 291.128 209.138 291.098C213.355 291.067 217.491 289.939 221.138 287.822L226.325 284.859C223.554 278.86 221.991 272.374 218.205 266.792C217.186 265.278 216.028 263.865 214.744 262.569Z" fill="#01B1C8"/>
</g>
<path style="mix-blend-mode:multiply" d="M305.515 215.402L337.132 186.678L322.983 163.333L273.136 190.738C279.714 195.265 299.08 210.754 305.515 215.402Z" fill="url(#paint0_linear_1152_80833)"/>
<path d="M314.782 56.0472L319.481 20.3801V52.6165" fill="#6A9546"/>
<path d="M308.966 28.0129C322.496 35.7066 317.705 62.1981 316.142 69.2726C315.899 70.3891 315.726 71.0286 315.726 71.0286" fill="#6A9546"/>
<path d="M293.244 33.9912L313.483 51.3985L312.985 38.2035C312.985 38.2035 314.477 27.3633 303.363 26.2265C292.249 25.0897 293.244 33.9912 293.244 33.9912Z" fill="#6A9546"/>
<path d="M318.426 180.466C316.539 180.24 314.717 179.642 313.063 178.706C311.41 177.771 309.958 176.516 308.793 175.015C315.208 134.76 310.823 57.8031 310.823 57.8031L316.274 57.0825C326.769 87.2889 329.723 163.881 330.21 179.096C326.83 180.882 322.141 181.014 318.426 180.466Z" fill="#D8876A"/>
<path d="M343.202 27.8809C359.838 27.1501 370.698 45.5623 370.698 45.5623L316.487 66.248L314.234 52.8195" fill="#85B23B"/>
<path d="M318.243 49.9876C318.243 49.9876 326.566 28.6219 343.192 27.881L318.243 49.9876Z" fill="#85B23B"/>
<path d="M366.212 60.9496C364.568 60.9496 362.923 60.9869 361.279 61.0613L358.122 54.8698L359.34 61.1323C354.854 61.2947 350.368 61.5282 345.881 61.7819L341.821 62.0255C341.487 60.1513 340.857 58.3423 339.954 56.6663C339.761 56.4024 339.954 59.3764 340.076 62.1473C332.188 62.6084 324.358 63.777 316.68 65.6389L317.461 63.2638C317.461 63.2638 320.405 49.0538 344.45 43.4612C368.496 37.8685 383.67 61.5282 383.67 61.5282H383.193C377.58 60.635 371.876 60.8684 366.212 60.9496Z" fill="#6A9546"/>
<path d="M308.966 28.0129C293.305 19.1012 288.331 37.2291 288.331 37.2291L308.966 28.0129Z" fill="#6A9546"/>
<path d="M316.487 66.2479C316.487 66.2479 320.375 52.3323 301.262 38.3862C282.15 24.4401 260.875 36.9043 260.875 36.9043L274.07 47.4704L283.743 43.5525L278.374 50.5662L289.6 58.0975C289.6 58.0975 296.847 53.2661 299.232 51.9263C299.77 51.6218 294.279 60.7568 294.279 60.7568L315.706 71.0185L316.487 66.2479Z" fill="#85B23B"/>
<path d="M303.485 70.0542L302.815 63.8424L301.029 70.6632C295.477 72.0944 290.006 73.7793 284.504 75.5758L282.972 70.1253L282.525 76.2153C279.561 77.1795 276.608 78.1336 273.715 79.1892L272.578 72.4192L271.563 80.0113C268.025 81.3414 264.626 83.0139 261.413 85.0052C260.276 70.5414 275.065 53.3169 291.132 51.1752C307.464 49.0031 316.507 66.2581 316.507 66.2581L312.244 68.2069C309.26 68.755 306.337 69.3539 303.485 70.0542Z" fill="#6A9546"/>
<path d="M347.719 74.3172L348.592 70.9474L347.13 74.104C343.138 72.6535 339.072 71.4135 334.95 70.3891L335.153 66.1667L333.722 70.0846C327.84 68.6966 321.882 67.6562 315.878 66.9686C317.025 65.1416 321.968 58.5136 334.26 56.2908C347.769 53.8548 359.148 69.4858 359.422 78.8745L357.777 78.6208C354.503 77.01 351.145 75.5734 347.719 74.3172Z" fill="#85B23B"/>
<path d="M355.92 114.978C355.92 114.978 332.879 149.417 337.142 186.678C337.142 186.678 326.992 193.701 318.426 180.466C318.426 180.466 334.422 114.491 355.92 114.978Z" fill="#D8876A"/>
<path d="M350.408 117.272L364.964 96.6269L354.448 116.673" fill="#6A9546"/>
<path d="M355.93 97.9362C361.837 107.132 350.216 122.042 346.937 125.93C346.419 126.549 346.115 126.884 346.115 126.884" fill="#6A9546"/>
<path d="M344.207 96.5355L351.109 113.963L355.108 105.599C355.108 105.599 359.574 99.3471 353.078 95.013C346.582 90.679 344.207 96.5355 344.207 96.5355Z" fill="#6A9546"/>
<path d="M377.265 109.03C387.842 113.994 388.593 128.995 388.593 128.995L348.145 124.174L351.119 115.09" fill="#85B23B"/>
<path d="M354.54 114.633C354.54 114.633 366.72 104.057 377.265 109.03L354.54 114.633Z" fill="#85B23B"/>
<path d="M385.7 140.922C384.482 140.306 383.257 139.7 382.026 139.105L382.087 133.339L380.564 138.414C377.204 136.801 373.814 135.248 370.414 133.705L367.369 132.324C367.848 130.819 368.085 129.246 368.069 127.666C368.069 127.402 366.983 129.645 366.039 131.726C360.058 129.018 353.844 126.854 347.475 125.26L348.967 123.819C348.967 123.819 356.63 114.471 376.443 119.667C396.256 124.864 398.276 148.087 398.276 148.087L397.91 147.935C394.206 145.093 389.933 143.053 385.7 140.922Z" fill="#6A9546"/>
<path d="M355.93 97.9362C349.099 87.2889 340.096 96.9212 340.096 96.9212L355.93 97.9362Z" fill="#6A9546"/>
<path d="M348.145 124.174C348.145 124.174 355.098 116.785 347.78 101.895C340.462 87.0047 323.156 87.8065 323.156 87.8065L327.916 98.6772L335.204 99.3978L329.581 102.006L334.108 110.35C334.108 110.35 340.198 109.71 342.106 109.649C342.542 109.649 336.138 113.527 336.138 113.527L346.115 126.894L348.145 124.174Z" fill="#85B23B"/>
<path d="M338.787 122.276L340.4 118.216L337.061 121.88C333.143 120.956 329.195 120.226 325.186 119.546L326.008 115.658L323.785 119.282C321.633 118.916 319.481 118.541 317.34 118.267L318.842 113.689L315.665 118.064C313.035 117.738 310.38 117.67 307.738 117.861C311.798 108.513 326.566 102.636 337.274 106.523C348.145 110.502 348.145 124.174 348.145 124.174L344.856 123.991C342.847 123.352 340.817 122.794 338.787 122.276Z" fill="#6A9546"/>
<path d="M364.933 139.369L366.577 137.552L364.649 139.044C362.633 136.836 360.501 134.735 358.264 132.751L359.767 130.193L357.595 132.162C354.39 129.382 351.025 126.792 347.516 124.407C348.825 123.646 354.042 121.129 362.426 123.768C371.622 126.661 373.591 140.069 370.698 146.017L369.764 145.327C368.26 143.257 366.647 141.268 364.933 139.369Z" fill="#85B23B"/>
<g opacity="0.64">
<path d="M220.651 33.7274C219.793 34.415 218.701 34.7425 217.606 34.6409C215.789 34.6409 208.471 33.5041 208.166 33.7274C207.862 33.9507 215.555 37.7874 218.509 38.0513C221.463 38.3152 222.376 38.8429 224.873 37.1377C227.37 35.4325 226.903 35.5442 229.765 34.6409C232.628 33.7375 229.42 23.618 228.172 23.7296C226.923 23.8413 228.852 28.9569 227.258 30.4388C225.665 31.9207 221.453 32.5906 220.651 33.7274Z" fill="#636560"/>
<path d="M223.604 35.8791C224.282 37.2273 225.12 38.4883 226.101 39.6346C227.116 40.5481 228.69 38.376 226.101 35.3107C223.513 32.2454 223.056 30.5402 221.331 30.2357C219.605 29.9312 221.442 27.617 220.082 27.8505C218.722 28.0839 216.104 29.8805 217.464 30.4692C218.824 31.0579 223.036 34.9047 223.036 34.9047" fill="#636560"/>
</g>
<g opacity="0.63">
<path d="M59.8849 110.248C60.0345 111.344 60.6063 112.339 61.4784 113.019C62.7979 114.278 68.8473 118.47 68.9387 118.866C69.03 119.261 60.7679 116.734 58.4639 114.866C56.1598 112.999 55.1144 112.776 54.4749 109.791C53.8355 106.807 54.0892 107.223 52.6581 104.605C51.2269 101.986 60.504 96.8502 61.3363 97.7941C62.1686 98.7381 57.2763 101.113 57.3677 103.275C57.459 105.437 60.1082 108.878 59.8849 110.248Z" fill="#636560"/>
<path d="M56.2715 109.771C54.8529 110.286 53.3772 110.627 51.8765 110.786C50.5063 110.786 50.8615 108.096 54.8505 107.66C58.8394 107.223 60.3619 106.32 61.8337 107.244C63.3054 108.167 63.549 105.275 64.3813 106.381C65.2136 107.487 65.8531 110.603 64.4727 110.076C63.0923 109.548 57.3677 109.446 57.3677 109.446" fill="#636560"/>
</g>
<g opacity="0.63">
<path d="M111.356 45.41C111.688 46.4614 112.416 47.3424 113.386 47.8663C114.898 48.8813 121.587 51.9263 121.749 52.3323C121.912 52.7383 113.335 51.6523 110.747 50.2008C108.159 48.7493 107.083 48.7189 105.946 45.9175C104.809 43.1161 105.124 43.4612 103.256 41.1267C101.389 38.7922 109.62 32.1135 110.635 32.9052C111.65 33.6969 107.174 36.884 107.681 38.9952C108.189 41.1064 111.315 43.9991 111.356 45.41Z" fill="#636560"/>
<path d="M107.692 45.5521C106.38 46.2967 104.982 46.8795 103.53 47.2878C102.17 47.4806 102.068 44.8112 105.925 43.6947C109.782 42.5782 111.122 41.4211 112.736 42.0808C114.35 42.7406 114.086 39.8377 115.101 40.7816C116.116 41.7256 117.283 44.6894 115.832 44.4052C114.38 44.121 108.727 45.0142 108.727 45.0142" fill="#636560"/>
</g>
<path d="M272.02 139.247C277.237 139.308 282.038 138.303 286.128 135.613C286.176 135.133 286.199 134.649 286.199 134.162C286.25 132.299 285.926 130.446 285.248 128.71C284.57 126.975 283.551 125.393 282.252 124.058C280.952 122.723 279.398 121.662 277.682 120.937C275.966 120.213 274.121 119.839 272.258 119.839C270.395 119.839 268.551 120.213 266.835 120.937C265.118 121.662 263.564 122.723 262.265 124.058C260.965 125.393 259.946 126.975 259.268 128.71C258.59 130.446 258.267 132.299 258.317 134.162C258.324 134.889 258.385 135.615 258.5 136.334C262.479 138.638 267.635 139.196 272.02 139.247Z" fill="#A55942"/>
<path d="M279.125 136.76C279.125 136.76 270.822 121.149 268.488 112.542C268.488 112.542 277.176 117.13 281.683 135.958" fill="#6A9546"/>
<path d="M278.191 135.349C278.191 135.349 278.536 117.668 280.698 109.02C280.698 109.02 286.047 117.262 280.79 135.877" fill="#7FAA55"/>
<path d="M276.08 135.938C276.08 135.938 284.789 120.55 290.798 113.953C290.798 113.953 291.589 123.748 278.11 137.633" fill="#8BBC5C"/>
<path d="M278.455 144.768C282.35 144.959 286.211 143.965 289.529 141.916C289.563 141.544 289.583 141.165 289.59 140.779C289.59 137.877 288.437 135.094 286.385 133.042C284.333 130.99 281.55 129.838 278.648 129.838C275.746 129.838 272.963 130.99 270.911 133.042C268.859 135.094 267.706 137.877 267.706 140.779C267.711 141.351 267.759 141.921 267.848 142.485C271.005 144.291 275.065 144.728 278.455 144.768Z" fill="#7F3726"/>
<path d="M312.427 235.682L347.465 215.737C345.98 214.428 344.421 213.204 342.796 212.073C341.385 211.251 312.427 235.682 312.427 235.682Z" fill="#68E1FD"/>
<defs>
<linearGradient id="paint0_linear_1152_80833" x1="330.017" y1="165.079" x2="302.917" y2="190.839" gradientUnits="userSpaceOnUse">
<stop stop-color="#F15A24"/>
<stop offset="1" stop-color="white"/>
</linearGradient>
</defs>
</svg>
