<svg width="18" height="4" viewBox="0 0 18 4" fill="none" xmlns="http://www.w3.org/2000/svg">
<path d="M13.375 2C13.375 0.98438 14.1953 0.125 15.25 0.125C16.2656 0.125 17.125 0.98438 17.125 2C17.125 3.05469 16.2656 3.875 15.25 3.875C14.1953 3.875 13.375 3.05469 13.375 2ZM7.125 2C7.125 0.98438 7.94531 0.125 9 0.125C10.0156 0.125 10.875 0.98438 10.875 2C10.875 3.05469 10.0156 3.875 9 3.875C7.94531 3.875 7.125 3.05469 7.125 2ZM4.625 2C4.625 3.05469 3.76562 3.875 2.75 3.875C1.69531 3.875 0.875 3.05469 0.875 2C0.875 0.98438 1.69531 0.125 2.75 0.125C3.76562 0.125 4.625 0.98438 4.625 2Z" fill="black"/>
</svg>
