<svg width="20" height="20" viewBox="0 0 20 20" fill="none" xmlns="http://www.w3.org/2000/svg">
<path d="M9.80892 20C9.53291 20 9.30467 19.9098 9.1242 19.7293C8.94374 19.5488 8.8535 19.3206 8.8535 19.0446V3.24841L1.6242 10.4777C1.43312 10.6688 1.21019 10.7643 0.955414 10.7643C0.700637 10.7643 0.477707 10.6688 0.286624 10.4777C0.0955413 10.2866 0 10.0637 0 9.80892C0 9.55414 0.0955413 9.33121 0.286624 9.14013L9.14013 0.286624C9.24628 0.180467 9.35775 0.106157 9.47452 0.0636939C9.5913 0.0212311 9.70276 0 9.80892 0C9.93631 0 10.0531 0.0212311 10.1592 0.0636939C10.2654 0.106157 10.3715 0.180467 10.4777 0.286624L19.3312 9.14013C19.5223 9.33121 19.6178 9.55414 19.6178 9.80892C19.6178 10.0637 19.5223 10.2866 19.3312 10.4777C19.1401 10.6688 18.9172 10.7643 18.6624 10.7643C18.4076 10.7643 18.1847 10.6688 17.9936 10.4777L10.7643 3.24841V19.0446C10.7643 19.3206 10.6741 19.5488 10.4936 19.7293C10.3132 19.9098 10.0849 20 9.80892 20Z" fill="#19275F"/>
</svg>
