<svg width="21" height="20" viewBox="0 0 21 20" fill="none" xmlns="http://www.w3.org/2000/svg">
<path d="M10.7301 0C11.0062 0 11.2344 0.0902328 11.4149 0.2707C11.5953 0.451168 11.6856 0.679405 11.6856 0.955414L11.6856 16.7516L18.9149 9.52229C19.1059 9.33121 19.3289 9.23567 19.5836 9.23567C19.8384 9.23567 20.0614 9.33121 20.2524 9.52229C20.4435 9.71338 20.5391 9.93631 20.5391 10.1911C20.5391 10.4459 20.4435 10.6688 20.2524 10.8599L11.3989 19.7134C11.2928 19.8195 11.1813 19.8938 11.0645 19.9363C10.9478 19.9788 10.8363 20 10.7301 20C10.6028 20 10.486 19.9788 10.3798 19.9363C10.2737 19.8938 10.1675 19.8195 10.0614 19.7134L1.20785 10.8599C1.01677 10.6688 0.921227 10.4459 0.921227 10.1911C0.921227 9.93631 1.01677 9.71338 1.20785 9.52229C1.39894 9.33121 1.62186 9.23567 1.87664 9.23567C2.13142 9.23567 2.35435 9.33121 2.54543 9.52229L9.77473 16.7516L9.77473 0.955414C9.77473 0.679405 9.86496 0.451168 10.0454 0.2707C10.2259 0.0902328 10.4541 0 10.7301 0Z" fill="#19275F"/>
</svg>
