<svg width="21" height="20" viewBox="0 0 21 20" fill="none" xmlns="http://www.w3.org/2000/svg">
<path d="M9.31818 19.7078L0.292208 10.6818C0.183983 10.5736 0.108225 10.4654 0.0649353 10.3571C0.0216453 10.2489 0 10.1299 0 10C0 9.87013 0.0216453 9.75108 0.0649353 9.64286C0.108225 9.53463 0.183983 9.42641 0.292208 9.31818L9.35065 0.25974C9.52381 0.0865798 9.74026 0 10 0C10.2597 0 10.487 0.0974025 10.6818 0.292208C10.8766 0.487013 10.974 0.714286 10.974 0.974026C10.974 1.23377 10.8766 1.46104 10.6818 1.65584L3.31169 9.02597H19.4156C19.697 9.02597 19.9297 9.11796 20.1136 9.30195C20.2976 9.48593 20.3896 9.71861 20.3896 10C20.3896 10.2814 20.2976 10.5141 20.1136 10.6981C19.9297 10.882 19.697 10.974 19.4156 10.974H3.31169L10.7143 18.3766C10.8874 18.5498 10.974 18.7662 10.974 19.026C10.974 19.2857 10.8766 19.513 10.6818 19.7078C10.487 19.9026 10.2597 20 10 20C9.74026 20 9.51299 19.9026 9.31818 19.7078Z" fill="black"/>
</svg>
