<svg width="16" height="16" viewBox="0 0 16 16" fill="none" xmlns="http://www.w3.org/2000/svg">
<path d="M1.33333 16C0.977778 16 0.666667 15.8667 0.4 15.6C0.133333 15.3333 0 15.0222 0 14.6667V1.33333C0 0.977778 0.133333 0.666667 0.4 0.4C0.666667 0.133333 0.977778 0 1.33333 0H6.86667C7.05926 0 7.21852 0.0629631 7.34444 0.188889C7.47037 0.314815 7.53333 0.474074 7.53333 0.666667C7.53333 0.859259 7.47037 1.01852 7.34444 1.14444C7.21852 1.27037 7.05926 1.33333 6.86667 1.33333H1.33333V14.6667H14.6667V9.13333C14.6667 8.94074 14.7296 8.78148 14.8556 8.65556C14.9815 8.52963 15.1407 8.46667 15.3333 8.46667C15.5259 8.46667 15.6852 8.52963 15.8111 8.65556C15.937 8.78148 16 8.94074 16 9.13333V14.6667C16 15.0222 15.8667 15.3333 15.6 15.6C15.3333 15.8667 15.0222 16 14.6667 16H1.33333ZM5.35556 10.6444C5.23704 10.5111 5.17407 10.3556 5.16667 10.1778C5.15926 10 5.22222 9.84444 5.35556 9.71111L13.7333 1.33333H9.53333C9.34074 1.33333 9.18148 1.27037 9.05556 1.14444C8.92963 1.01852 8.86667 0.859259 8.86667 0.666667C8.86667 0.474074 8.92963 0.314815 9.05556 0.188889C9.18148 0.0629631 9.34074 0 9.53333 0H15.3333C15.5259 0 15.6852 0.0629631 15.8111 0.188889C15.937 0.314815 16 0.474074 16 0.666667V6.46667C16 6.65926 15.937 6.81852 15.8111 6.94444C15.6852 7.07037 15.5259 7.13333 15.3333 7.13333C15.1407 7.13333 14.9815 7.07037 14.8556 6.94444C14.7296 6.81852 14.6667 6.65926 14.6667 6.46667V2.28889L6.28889 10.6667C6.17037 10.7852 6.01852 10.8444 5.83333 10.8444C5.64815 10.8444 5.48889 10.7778 5.35556 10.6444Z" fill="#19275F"/>
</svg>
