<svg width="16" height="16" viewBox="0 0 16 16" fill="none" xmlns="http://www.w3.org/2000/svg">
<path d="M8 16C7.78333 16 7.60417 15.9292 7.4625 15.7875C7.32083 15.6458 7.25 15.4667 7.25 15.25V6.725L4.775 9.2C4.625 9.35 4.45 9.42083 4.25 9.4125C4.05 9.40417 3.875 9.325 3.725 9.175C3.575 9.025 3.5 8.84583 3.5 8.6375C3.5 8.42917 3.575 8.25 3.725 8.1L7.475 4.35C7.55833 4.26667 7.64167 4.20833 7.725 4.175C7.80833 4.14167 7.9 4.125 8 4.125C8.1 4.125 8.19167 4.14167 8.275 4.175C8.35833 4.20833 8.44167 4.26667 8.525 4.35L12.3 8.125C12.45 8.275 12.525 8.45 12.525 8.65C12.525 8.85 12.45 9.025 12.3 9.175C12.15 9.325 11.9708 9.4 11.7625 9.4C11.5542 9.4 11.375 9.325 11.225 9.175L8.75 6.725V15.25C8.75 15.4667 8.67917 15.6458 8.5375 15.7875C8.39583 15.9292 8.21667 16 8 16ZM0.75 5.075C0.533333 5.075 0.354167 5.00417 0.2125 4.8625C0.0708334 4.72083 0 4.54167 0 4.325V1.5C0 1.1 0.15 0.75 0.45 0.45C0.75 0.15 1.1 0 1.5 0H14.5C14.9 0 15.25 0.15 15.55 0.45C15.85 0.75 16 1.1 16 1.5V4.325C16 4.54167 15.9292 4.72083 15.7875 4.8625C15.6458 5.00417 15.4667 5.075 15.25 5.075C15.0333 5.075 14.8542 5.00417 14.7125 4.8625C14.5708 4.72083 14.5 4.54167 14.5 4.325V1.5H1.5V4.325C1.5 4.54167 1.42917 4.72083 1.2875 4.8625C1.14583 5.00417 0.966667 5.075 0.75 5.075Z" fill="#19275F"/>
</svg>
