<svg width="22" height="22" viewBox="0 0 22 22" fill="none" xmlns="http://www.w3.org/2000/svg">
<path d="M6.89658 11C6.89658 8.72266 8.70127 6.875 11.0216 6.875C13.2989 6.875 15.1466 8.72266 15.1466 11C15.1466 13.2773 13.2989 15.125 11.0216 15.125C8.70127 15.125 6.89658 13.2773 6.89658 11ZM11.0216 8.9375C9.86142 8.9375 8.95908 9.8828 8.95908 11C8.95908 12.1602 9.86142 13.0625 11.0216 13.0625C12.1388 13.0625 13.0841 12.1602 13.0841 11C13.0841 9.8828 12.1388 8.9375 11.0216 8.9375ZM12.6114 0C13.5568 0 14.3732 0.6875 14.588 1.58984L14.9318 3.00781C15.3185 3.17969 15.6622 3.39453 15.963 3.60938L17.381 3.17969C18.2833 2.92188 19.2716 3.30859 19.7443 4.125L21.3341 6.91797C21.8068 7.73438 21.6349 8.76562 20.9474 9.4102L19.9161 10.3984C19.9161 10.6133 19.9591 10.8281 19.9591 11C19.9591 11.2148 19.9161 11.4297 19.9161 11.6016L20.9474 12.6328C21.6349 13.2773 21.8068 14.3086 21.3341 15.125L19.7443 17.918C19.2716 18.7344 18.2833 19.1211 17.381 18.8633L15.963 18.4336C15.6622 18.6484 15.3185 18.8633 14.9318 19.0352L14.588 20.4531C14.3732 21.3555 13.5568 22 12.6114 22H9.38877C8.44346 22 7.62705 21.3555 7.4122 20.4531L7.06846 19.0352C6.68174 18.8633 6.33799 18.6484 6.0372 18.4336L4.61924 18.8633C3.71689 19.1211 2.72861 18.7344 2.25596 17.918L0.666107 15.125C0.193451 14.3086 0.365326 13.2773 1.05283 12.6328L2.08408 11.6016C2.08408 11.4297 2.08408 11.2148 2.08408 11C2.08408 10.8281 2.08408 10.6133 2.08408 10.3984L1.05283 9.4102C0.365326 8.76562 0.193451 7.73438 0.666107 6.91797L2.25596 4.125C2.72861 3.30859 3.71689 2.92188 4.61924 3.17969L6.0372 3.60938C6.33799 3.39453 6.68174 3.17969 7.06846 3.00781L7.4122 1.58984C7.62705 0.6875 8.44346 0 9.38877 0H12.6114ZM8.83017 4.46875L8.35752 4.68359C7.79892 4.89844 7.2833 5.19922 6.85361 5.54297L6.42392 5.88672L4.06064 5.15625L2.4708 7.94922L4.23252 9.625L4.18955 10.1406C4.14658 10.4414 4.14658 10.7422 4.14658 11C4.14658 11.3008 4.14658 11.6016 4.18955 11.9023L4.23252 12.418L2.4708 14.0938L4.06064 16.8867L6.42392 16.1562L6.85361 16.5C7.2833 16.8438 7.79892 17.1445 8.35752 17.3594L8.83017 17.5742L9.38877 19.9375H12.6114L13.17 17.5742L13.6427 17.3594C14.2013 17.1445 14.7169 16.8438 15.1466 16.5L15.5763 16.1562L17.9396 16.8867L19.5294 14.0938L17.7677 12.418L17.8107 11.9023C17.8536 11.6016 17.8966 11.3008 17.8966 11C17.8966 10.7422 17.8536 10.4414 17.8107 10.1406L17.7677 9.625L19.5294 7.94922L17.9396 5.15625L15.5763 5.88672L15.1466 5.54297C14.7169 5.19922 14.2013 4.89844 13.6427 4.68359L13.17 4.46875L12.6114 2.0625H9.38877L8.83017 4.46875Z" fill="black"/>
</svg>
