<svg width="14" height="13" viewBox="0 0 14 13" fill="none" xmlns="http://www.w3.org/2000/svg">
<path d="M12.7431 4.9366L9.23409 4.3746C9.09409 4.3746 9.09409 4.3746 8.95309 4.2346L7.40709 1.0066C7.38025 0.915762 7.32475 0.836045 7.24887 0.779349C7.17299 0.722652 7.08081 0.692017 6.98609 0.692017C6.89137 0.692017 6.7992 0.722652 6.72332 0.779349C6.64744 0.836045 6.59194 0.915762 6.56509 1.0066L5.02309 4.2346C5.02309 4.3746 4.88309 4.3746 4.74209 4.3746L1.23409 4.9366C1.14133 4.94695 1.05346 4.98363 0.980874 5.04232C0.908288 5.101 0.854014 5.17924 0.824465 5.26778C0.794916 5.35632 0.791326 5.45147 0.814119 5.54199C0.836912 5.63251 0.885136 5.71461 0.953094 5.7786L3.47909 8.3046C3.55532 8.38038 3.60451 8.47911 3.61909 8.5856L3.05809 12.0906C3.05809 12.5116 3.47909 12.7906 3.75809 12.6516L6.84609 10.9676H7.12709L10.3571 12.6556C10.7781 12.7956 11.0571 12.5156 11.0571 12.0946L10.4971 8.5856C10.4971 8.4456 10.4971 8.4456 10.6371 8.3046L13.1631 5.7786C13.3031 5.4976 13.0241 5.0786 12.7431 4.9366Z" fill="#CC9425"/>
</svg>
