<svg width="16" height="20" viewBox="0 0 16 20" fill="none" xmlns="http://www.w3.org/2000/svg">
<path d="M1.42857 20C1.03571 20 0.699405 19.8601 0.419643 19.5804C0.139881 19.3006 0 18.9643 0 18.5714V8.2381C0 7.84524 0.139881 7.50893 0.419643 7.22917C0.699405 6.9494 1.03571 6.80952 1.42857 6.80952H10.7143V4.52381C10.7143 3.66402 10.4134 2.9332 9.8115 2.33136C9.20966 1.7295 8.47884 1.42857 7.61905 1.42857C6.87302 1.42857 6.22222 1.65079 5.66667 2.09524C5.11111 2.53968 4.75397 3.11111 4.59524 3.80952C4.54762 4.01587 4.45238 4.18651 4.30952 4.32143C4.16667 4.45635 4 4.52381 3.80952 4.52381C3.60317 4.52381 3.43254 4.45238 3.29762 4.30952C3.1627 4.16667 3.11111 4 3.14286 3.80952C3.31746 2.71429 3.82143 1.80556 4.65476 1.08333C5.4881 0.361111 6.47619 0 7.61905 0C8.87064 0 9.9375 0.441071 10.8196 1.32321C11.7018 2.20536 12.1429 3.27222 12.1429 4.52381V6.80952H13.8095C14.2024 6.80952 14.5387 6.9494 14.8185 7.22917C15.0982 7.50893 15.2381 7.84524 15.2381 8.2381V18.5714C15.2381 18.9643 15.0982 19.3006 14.8185 19.5804C14.5387 19.8601 14.2024 20 13.8095 20H1.42857ZM1.42857 18.5714H13.8095V8.2381H1.42857V18.5714ZM7.62305 15.2381C8.12832 15.2381 8.55952 15.0632 8.91667 14.7135C9.27381 14.3638 9.45238 13.9435 9.45238 13.4524C9.45238 12.9762 9.27248 12.5437 8.91267 12.1548C8.55286 11.7659 8.12032 11.5714 7.61505 11.5714C7.10978 11.5714 6.67857 11.7659 6.32143 12.1548C5.96429 12.5437 5.78571 12.9802 5.78571 13.4643C5.78571 13.9484 5.96562 14.3651 6.32543 14.7143C6.68524 15.0635 7.11778 15.2381 7.62305 15.2381Z" fill="#85B23B"/>
</svg>
