<svg width="22" height="20" viewBox="0 0 22 20" fill="none" xmlns="http://www.w3.org/2000/svg">
<path d="M8.16797 11.5234L4.96484 14.7266L3.12891 12.8906C2.89453 12.6562 2.58203 12.5 2.23047 12.5C2.07422 12.5 1.91797 12.5391 1.76172 12.6172C1.29297 12.8125 0.980469 13.2812 0.980469 13.75V19.0625C1.01953 19.6094 1.41015 20 1.95703 20H7.26953C7.73828 20 8.20703 19.7266 8.40234 19.2578C8.59765 18.7891 8.48047 18.2422 8.12891 17.8906L6.29297 16.0547L9.45703 12.8516C9.84765 12.5 9.84765 11.9141 9.45703 11.5625C9.10547 11.1719 8.51953 11.1719 8.16797 11.5234ZM20.0429 0H14.7304C14.2226 0 13.7539 0.3125 13.5586 0.78125C13.3633 1.25 13.4804 1.79688 13.832 2.14844L15.6679 3.98438L12.5039 7.1875C12.1133 7.53906 12.1133 8.125 12.5039 8.47656C12.8554 8.86719 13.4414 8.86719 13.832 8.47656L16.9961 5.3125L18.832 7.14844C19.0664 7.38281 19.3789 7.5 19.7304 7.5C19.8867 7.5 20.0429 7.5 20.1992 7.42188C20.707 7.22656 21.0195 6.75781 21.0195 6.25V0.9375C21.0195 0.429688 20.5898 0 20.0429 0Z" fill="black"/>
</svg>
