<svg width="17" height="10" viewBox="0 0 17 10" fill="none" xmlns="http://www.w3.org/2000/svg">
<path d="M8.52182 -0.000401497C8.67153 -0.000401497 8.80876 0.0245495 8.93351 0.0744514C9.05827 0.124353 9.18302 0.21168 9.30778 0.336435L16.7182 7.74686C16.9178 7.94647 17.0114 8.21469 16.9989 8.55153C16.9864 8.88836 16.8804 9.15659 16.6808 9.35619C16.4313 9.6057 16.163 9.71174 15.8761 9.67432C15.5892 9.63689 15.3334 9.51837 15.1089 9.31877L8.52182 2.73172L1.93478 9.31877C1.73517 9.51837 1.46695 9.63065 1.13011 9.65561C0.793276 9.68056 0.525053 9.56828 0.325445 9.31877C0.0759354 9.11916 -0.0301056 8.85718 0.0073204 8.53281C0.0447483 8.20845 0.163263 7.93399 0.362871 7.70943L7.73587 0.336435C7.86063 0.21168 7.98538 0.124353 8.11013 0.0744514C8.23489 0.0245495 8.37212 -0.000401497 8.52182 -0.000401497Z" fill="#19275F"/>
</svg>
